<?xml version="1.0" standalone="no"?>
<!DOCTYPE svg PUBLIC "-//W3C//DTD SVG 20010904//EN"
 "http://www.w3.org/TR/2001/REC-SVG-20010904/DTD/svg10.dtd">
<svg version="1.0" xmlns="http://www.w3.org/2000/svg"
 width="700.000000pt" height="700.000000pt" viewBox="0 0 700.000000 700.000000"
 preserveAspectRatio="xMidYMid meet">
<metadata>
Created by potrace 1.14, written by Peter Selinger 2001-2017
</metadata>
<g transform="translate(0.000000,700.000000) scale(0.100000,-0.100000)"
fill="#000000" stroke="none">
<path d="M3418 6995 c-2 -1 -61 -6 -133 -9 -71 -4 -139 -9 -150 -11 -11 -2
-47 -7 -80 -10 -76 -6 -182 -19 -250 -30 -16 -3 -43 -7 -60 -10 -125 -19 -456
-92 -570 -126 -437 -129 -783 -286 -1085 -492 -84 -57 -85 -58 -184 -142 -264
-221 -447 -489 -495 -726 -17 -85 -19 -101 -20 -145 l-1 -42 -55 -7 c-114 -14
-238 -102 -290 -205 -39 -76 -40 -86 -40 -285 l0 -180 32 -67 c30 -64 95 -142
137 -165 16 -9 19 -25 22 -110 5 -165 33 -309 86 -442 16 -41 38 -87 48 -101
l19 -26 -32 -19 c-105 -62 -207 -206 -262 -370 -60 -177 -68 -425 -21 -644 42
-194 170 -384 304 -453 61 -30 73 -33 157 -33 l90 1 2 -65 c3 -83 19 -152 50
-215 26 -53 50 -79 98 -103 17 -9 31 -17 33 -18 2 -2 -7 -31 -19 -66 -63 -186
5 -369 181 -485 22 -15 40 -29 41 -33 0 -3 2 -30 4 -60 20 -248 169 -423 418
-491 42 -12 94 -22 117 -23 22 -1 40 -5 40 -9 0 -4 0 -9 1 -10 0 -2 6 -35 14
-74 32 -166 119 -258 289 -304 98 -27 240 -31 383 -12 100 13 103 13 125 -8
43 -41 184 -111 253 -127 234 -52 394 -52 600 0 81 21 183 70 248 120 l38 29
82 -13 c103 -16 298 -16 368 1 196 47 305 164 323 348 2 24 6 46 10 49 3 3 25
8 48 10 67 7 206 52 267 86 155 88 256 265 260 457 1 28 7 39 29 52 89 53 169
152 202 248 27 79 23 176 -9 258 -20 50 -20 79 -2 67 5 -2 26 8 47 23 73 53
121 177 123 322 l1 45 92 0 c83 0 99 3 147 28 64 34 140 103 179 163 l29 43
15 -37 c37 -85 118 -293 118 -300 0 -5 -24 -25 -52 -45 -207 -142 -331 -379
-331 -632 0 -254 118 -487 317 -630 446 -318 1054 -109 1207 417 33 113 34
284 2 402 -63 235 -225 427 -441 521 l-44 19 6 60 c4 34 8 68 11 76 2 8 6 38
10 65 6 48 41 283 50 334 2 13 7 45 11 70 4 25 8 55 10 66 3 11 7 38 9 60 3
22 10 63 15 90 16 88 35 240 45 370 3 39 8 95 11 125 6 64 7 524 0 620 -4 67
-15 201 -21 255 -7 67 -17 152 -21 175 -2 14 -7 45 -10 70 -6 41 -46 257 -58
305 -100 423 -252 791 -450 1089 -307 461 -737 781 -1271 944 -92 29 -163 47
-225 58 -14 3 -41 9 -60 14 -45 11 -157 28 -240 36 -36 3 -78 8 -95 11 -32 6
-791 13 -797 8z"/>
</g>
</svg>
